<?xml version="1.0" standalone="no"?>
<!DOCTYPE svg PUBLIC "-//W3C//DTD SVG 20010904//EN"
 "http://www.w3.org/TR/2001/REC-SVG-20010904/DTD/svg10.dtd">
<svg version="1.0" xmlns="http://www.w3.org/2000/svg"
 width="609" height="609" viewBox="0 0 609 609"
 preserveAspectRatio="xMidYMid meet">
<metadata>
Created by potrace 1.15, written by Peter Selinger 2001-2017
</metadata>
<g transform="translate(0,609) scale(0.1,-0.1)"
fill="#1D237A" stroke="none">
<path d="M2948 6039 c-59 -14 -155 -66 -203 -110 -193 -178 -193 -491 0 -667
99 -90 248 -136 371 -115 179 31 328 163 373 331 19 68 15 188 -9 264 -66 213
-310 350 -532 297z"/>
<path d="M2084 5520 c-196 -40 -413 -301 -390 -467 13 -96 38 -129 325 -420
151 -153 284 -283 295 -290 30 -18 122 -16 159 3 50 25 376 353 398 399 10 22
19 55 19 72 0 72 -23 102 -318 394 -239 238 -294 287 -327 296 -64 18 -117 22
-161 13z"/>
<path d="M3877 5505 c-64 -24 -13 24 -882 -833 -242 -239 -453 -440 -470 -447
-16 -7 -40 -17 -52 -21 -20 -8 -1 -31 215 -251 130 -132 252 -248 269 -257 18
-9 52 -19 76 -22 81 -11 8 -77 934 838 255 251 410 413 425 440 18 34 23 59
23 119 -1 109 -40 186 -154 300 -108 107 -174 143 -276 146 -42 2 -85 -3 -108
-12z"/>
<path d="M1360 4841 c-104 -32 -234 -138 -313 -254 -61 -91 -72 -218 -27 -308
15 -29 145 -167 385 -409 874 -880 914 -923 899 -974 -4 -10 -2 -17 4 -15 5 2
118 109 251 238 158 154 248 249 261 276 23 47 26 128 7 162 -7 13 -285 298
-617 634 -665 673 -649 660 -765 658 -33 0 -71 -4 -85 -8z"/>
<path d="M4565 4808 c-16 -6 -42 -19 -57 -28 -47 -28 -587 -566 -598 -594 -16
-42 -12 -96 10 -140 28 -58 346 -381 395 -402 50 -20 114 -20 155 1 18 9 160
144 316 299 277 275 283 282 300 340 37 132 -8 250 -145 386 -108 107 -174
142 -275 146 -39 2 -84 -2 -101 -8z"/>
<path d="M3528 3831 c-255 -250 -288 -292 -288 -364 0 -19 10 -52 23 -75 12
-22 290 -311 617 -641 669 -676 645 -656 773 -650 98 5 181 47 279 138 158
148 205 313 125 443 -22 36 -271 293 -912 938 -182 184 -338 346 -345 360 -8
14 -16 40 -19 59 l-6 34 -247 -242z"/>
<path d="M778 3921 c-157 -50 -270 -177 -304 -342 -38 -185 48 -380 210 -474
297 -172 664 22 682 359 5 95 -19 192 -65 263 -41 63 -116 135 -171 163 -101
52 -247 64 -352 31z"/>
<path d="M5030 3891 c-115 -36 -209 -117 -263 -226 -38 -76 -50 -136 -45 -233
5 -111 42 -197 123 -281 166 -174 441 -187 622 -27 260 229 175 654 -155 765
-78 27 -203 28 -282 2z"/>
<path d="M1620 3309 c-13 -6 -150 -135 -303 -287 -311 -309 -327 -330 -327
-439 0 -113 53 -212 177 -330 80 -75 155 -112 246 -119 127 -11 142 -1 469
323 157 155 287 292 294 310 38 88 9 139 -194 345 -101 103 -181 175 -207 188
-44 21 -113 25 -155 9z"/>
<path d="M2975 3266 c-40 -18 -13 8 -678 -650 -657 -649 -632 -619 -625 -751
5 -102 47 -184 147 -284 134 -134 262 -179 392 -136 59 19 -12 -48 944 896
176 174 336 330 355 346 44 38 98 66 110 58 6 -3 10 -1 10 6 0 22 -473 490
-515 510 -47 22 -98 24 -140 5z"/>
<path d="M3615 2608 c-52 -27 -371 -342 -396 -390 -25 -48 -25 -123 0 -163 10
-16 138 -152 285 -302 303 -308 315 -317 436 -318 68 0 84 4 154 38 96 48 206
154 256 248 26 50 34 78 38 136 8 122 -2 139 -223 363 -106 107 -232 236 -280
287 -48 50 -102 99 -120 107 -45 22 -102 19 -150 -6z"/>
<path d="M2945 1804 c-192 -50 -322 -186 -356 -373 -30 -168 54 -357 198 -449
84 -53 165 -75 268 -70 79 3 101 8 166 40 251 119 340 424 190 655 -47 73
-106 122 -195 164 -58 27 -81 32 -160 35 -50 2 -100 1 -111 -2z"/>
<path d="M706 648 c-14 -19 -16 -63 -16 -279 0 -235 1 -257 18 -272 10 -10 33
-17 50 -17 46 0 62 30 62 115 0 70 0 71 44 114 l44 43 82 -123 c45 -68 89
-130 98 -136 22 -18 78 -16 97 4 28 28 11 67 -90 206 l-96 132 86 80 c88 83
100 108 69 139 -8 9 -30 16 -47 16 -27 0 -50 -18 -159 -127 l-128 -128 0 105
c0 124 -11 150 -65 150 -24 0 -39 -7 -49 -22z"/>
<path d="M2544 656 c-18 -13 -19 -30 -22 -271 -3 -287 0 -305 58 -305 56 0 60
13 60 208 l0 176 115 -169 c142 -208 148 -215 195 -215 69 0 70 4 70 294 0
158 -4 265 -10 277 -13 24 -72 26 -91 3 -10 -12 -15 -64 -19 -187 l-5 -170
-119 174 c-66 96 -126 180 -134 187 -21 16 -74 15 -98 -2z"/>
<path d="M3312 663 c-18 -7 -31 -35 -132 -284 -49 -122 -90 -235 -90 -250 0
-33 27 -52 68 -47 27 3 54 43 81 118 l10 30 114 0 114 0 22 -60 c26 -71 43
-90 80 -90 39 0 65 32 58 69 -12 59 -197 486 -218 504 -20 16 -78 22 -107 10z
m128 -345 c0 -5 -36 -8 -81 -8 -73 0 -80 2 -74 18 4 9 18 49 32 87 14 39 30
81 35 95 9 22 14 14 49 -80 21 -58 39 -108 39 -112z"/>
<path d="M3736 648 c-14 -19 -16 -63 -16 -279 0 -235 1 -257 18 -272 10 -10
33 -17 50 -17 46 0 62 30 62 115 0 70 0 71 44 114 l44 43 82 -123 c45 -68 89
-130 98 -136 22 -18 78 -16 97 4 28 28 11 67 -90 206 l-96 132 86 80 c88 83
100 108 69 139 -8 9 -30 16 -47 16 -27 0 -50 -18 -159 -127 l-128 -128 0 105
c0 124 -11 150 -65 150 -24 0 -39 -7 -49 -22z"/>
<path d="M1307 642 c-15 -16 -17 -50 -17 -269 0 -229 1 -251 18 -266 16 -15
46 -17 218 -17 210 0 224 3 224 45 0 41 -16 45 -177 45 l-153 0 0 85 0 84 141
3 c122 3 143 5 153 20 8 13 8 23 0 35 -10 16 -31 18 -153 21 l-141 3 0 69 0
70 148 0 c155 0 172 4 172 45 0 42 -14 45 -220 45 -178 0 -198 -2 -213 -18z"/>
<path d="M1849 643 c-20 -23 -25 -496 -6 -533 15 -29 76 -40 95 -17 8 9 12 81
14 208 l3 194 47 -184 c26 -101 54 -194 63 -207 20 -31 83 -34 109 -5 10 10
39 102 66 202 l48 184 1 -186 c1 -167 3 -188 19 -202 23 -21 66 -22 86 -1 14
13 16 52 16 273 0 303 4 291 -102 291 -49 0 -69 -4 -80 -17 -8 -10 -35 -91
-59 -180 -24 -90 -46 -159 -50 -155 -3 4 -23 72 -44 152 -55 207 -50 200 -139
200 -56 0 -77 -4 -87 -17z"/>
<path d="M4347 642 c-15 -16 -17 -50 -17 -269 0 -229 1 -251 18 -266 16 -15
46 -17 218 -17 210 0 224 3 224 45 0 41 -16 45 -177 45 l-153 0 0 85 0 84 141
3 c122 3 143 5 153 20 8 13 8 23 0 35 -10 16 -31 18 -153 21 l-141 3 0 69 0
70 148 0 c155 0 172 4 172 45 0 42 -14 45 -220 45 -178 0 -198 -2 -213 -18z"/>
<path d="M4897 642 c-15 -16 -17 -47 -17 -275 0 -288 1 -291 69 -285 50 4 61
31 61 156 l0 102 25 0 c60 0 91 -25 150 -121 75 -122 91 -139 132 -139 24 0
37 7 49 25 16 24 15 28 -15 89 -17 34 -50 84 -74 109 l-43 47 45 22 c64 32 84
64 84 133 0 61 -16 91 -67 129 -25 19 -44 21 -205 24 -163 3 -178 2 -194 -16z
m315 -90 c24 -23 28 -73 9 -96 -19 -22 -76 -36 -148 -36 l-63 0 0 81 0 81 90
-4 c76 -3 94 -8 112 -26z"/>
</g>
</svg>
